<?xml version="1.0"?>
<!DOCTYPE svg PUBLIC "-//W3C//DTD SVG 1.1//EN"
  "http://www.w3.org/Graphics/SVG/1.1/DTD/svg11.dtd">

<svg version="1.1"
     xmlns="http://www.w3.org/2000/svg"
     xmlns:xlink="http://www.w3.org/1999/xlink"
     viewBox="307 0 13 17"
     width="13" height="17">
<g transform="translate(0,71) scale(1,-1) scale(.01800) translate(2100,27250)" stroke-linejoin="round" color="black" stroke="currentColor" fill="none" stroke-width="26.7067"  fill-rule="evenodd">
<path  d="
M15318 -23960
L15318 -23343
"/>
<path  d="
M15089 -24126
L15121 -24126
L15150 -24121
L15192 -24107
L15229 -24089
L15262 -24065
L15276 -24051
L15300 -24023
L15314 -23995
L15318 -23967
L15318 -23948
L15314 -23929
L15309 -23920
L15295 -23901
L15276 -23887
L15267 -23882
L15253 -23878
L15229 -23873
L15196 -23873
L15168 -23878
L15140 -23887
L15126 -23892
L15089 -23910
L15056 -23934
L15042 -23948
L15018 -23976
L15004 -24004
L15000 -24032
L15000 -24051
L15004 -24070
L15009 -24079
L15023 -24098
L15042 -24112
L15051 -24117
L15065 -24121
L15089 -24126
Z" fill="currentColor"/>
<path stroke-width="20.0300" d="
M15595 -24056
L15600 -24028
L15604 -23962
L15604 -23939
L15600 -23887
L15595 -23859
L15581 -23812
L15567 -23779
L15553 -23751
L15534 -23723
L15510 -23695
L15487 -23671
L15459 -23648
L15417 -23620
L15370 -23596
L15318 -23578
L15318 -23325
L15332 -23381
L15337 -23395
L15346 -23418
L15365 -23456
L15379 -23479
L15393 -23498
L15417 -23526
L15468 -23582
L15487 -23601
L15520 -23639
L15539 -23662
L15557 -23690
L15576 -23723
L15590 -23756
L15600 -23784
L15609 -23821
L15614 -23850
L15618 -23906
L15618 -23957
L15614 -24009
L15609 -24042
L15604 -24065
L15600 -24084
L15595 -24056
Z" fill="currentColor"/>
<path stroke-width="20.0300" d="
M15609 -24042
L15604 -24065
L15600 -24084
L15590 -24117
L15571 -24168
L15581 -24135
L15585 -24112
L15590 -24089
L15595 -24056
L15600 -24028
L15609 -24042
Z" fill="currentColor"/>
</g>
</svg>
