<?xml version="1.0"?>
<!DOCTYPE svg PUBLIC "-//W3C//DTD SVG 1.1//EN"
  "http://www.w3.org/Graphics/SVG/1.1/DTD/svg11.dtd">

<svg version="1.1"
     xmlns="http://www.w3.org/2000/svg"
     xmlns:xlink="http://www.w3.org/1999/xlink"
     viewBox="307 0 24 18"
     width="24" height="18">
<g transform="translate(0,72) scale(1,-1) scale(.01800) translate(2100,27250)" stroke-linejoin="round" color="black" stroke="currentColor" fill="none" stroke-width="26.7067"  fill-rule="evenodd">
<path  d="
M15318 -23960
L15318 -23343
"/>
<path  d="
M15023 -24098
L15042 -24112
L15051 -24117
L15065 -24121
L15093 -24126
L15121 -24126
L15150 -24121
L15178 -24112
L15192 -24107
L15229 -24089
L15262 -24065
L15276 -24051
L15281 -24046
L15300 -24023
L15314 -23995
L15318 -23967
L15318 -23948
L15314 -23929
L15309 -23920
L15295 -23901
L15276 -23887
L15267 -23882
L15253 -23878
L15225 -23873
L15196 -23873
L15168 -23878
L15140 -23887
L15126 -23892
L15089 -23910
L15056 -23934
L15037 -23953
L15018 -23976
L15004 -24004
L15000 -24032
L15000 -24051
L15004 -24070
L15009 -24079
L15023 -24098
M15032 -24098
L15046 -24107
L15065 -24112
L15075 -24112
L15098 -24103
L15276 -23995
L15295 -23981
L15304 -23971
L15309 -23957
L15309 -23943
L15304 -23929
L15300 -23920
L15285 -23901
L15271 -23892
L15253 -23887
L15243 -23887
L15220 -23896
L15042 -24004
L15023 -24018
L15014 -24028
L15009 -24042
L15009 -24056
L15014 -24070
L15018 -24079
L15032 -24098
Z" fill="currentColor"/>
<path  d="
M15956 -23960
L15956 -23343
"/>
<path  d="
M15726 -24126
L15759 -24126
L15787 -24121
L15829 -24107
L15867 -24089
L15900 -24065
L15914 -24051
L15937 -24023
L15951 -23995
L15956 -23967
L15956 -23948
L15951 -23929
L15946 -23920
L15932 -23901
L15914 -23887
L15904 -23882
L15890 -23878
L15867 -23873
L15834 -23873
L15806 -23878
L15778 -23887
L15764 -23892
L15726 -23910
L15693 -23934
L15679 -23948
L15656 -23976
L15642 -24004
L15637 -24032
L15637 -24051
L15642 -24070
L15646 -24079
L15660 -24098
L15679 -24112
L15689 -24117
L15703 -24121
L15726 -24126
Z" fill="currentColor"/>
<path stroke-width="20.0300" d="
M16232 -24056
L16237 -24028
L16242 -23962
L16242 -23939
L16237 -23887
L16232 -23859
L16218 -23812
L16204 -23779
L16190 -23751
L16171 -23723
L16148 -23695
L16125 -23671
L16096 -23648
L16054 -23620
L16007 -23596
L15956 -23578
L15956 -23325
L15970 -23381
L15975 -23395
L15984 -23418
L16003 -23456
L16017 -23479
L16031 -23498
L16054 -23526
L16106 -23582
L16125 -23601
L16157 -23639
L16176 -23662
L16195 -23690
L16214 -23723
L16228 -23756
L16237 -23784
L16246 -23821
L16251 -23850
L16256 -23906
L16256 -23957
L16251 -24009
L16246 -24042
L16242 -24065
L16237 -24084
L16232 -24056
Z" fill="currentColor"/>
<path stroke-width="20.0300" d="
M16246 -24042
L16242 -24065
L16237 -24084
L16228 -24117
L16209 -24168
L16218 -24135
L16223 -24112
L16228 -24089
L16232 -24056
L16237 -24028
L16246 -24042
Z" fill="currentColor"/>
<path stroke-width="20.0300" d="
M15393 -23769
L15458 -23706
L15522 -23677
L15586 -23671
L15650 -23671
L15715 -23677
L15779 -23706
L15843 -23769
L15779 -23694
L15715 -23653
L15650 -23634
L15586 -23634
L15522 -23653
L15458 -23694
L15393 -23769
Z" fill="currentColor"/>
</g>
</svg>
