<?xml version="1.0"?>
<!DOCTYPE svg PUBLIC "-//W3C//DTD SVG 1.1//EN"
  "http://www.w3.org/Graphics/SVG/1.1/DTD/svg11.dtd">

<svg version="1.1"
     xmlns="http://www.w3.org/2000/svg"
     xmlns:xlink="http://www.w3.org/1999/xlink"
     viewBox="307 0 13 22"
     width="13" height="22">
<g transform="translate(0,75) scale(1,-1) scale(.01800) translate(2100,27250)" stroke-linejoin="round" color="black" stroke="currentColor" fill="none" stroke-width="26.7067"  fill-rule="evenodd">
<path  d="
M15318 -23960
L15318 -23146
"/>
<path  d="
M15089 -24126
L15121 -24126
L15150 -24121
L15192 -24107
L15229 -24089
L15262 -24065
L15276 -24051
L15300 -24023
L15314 -23995
L15318 -23967
L15318 -23948
L15314 -23929
L15309 -23920
L15295 -23901
L15276 -23887
L15267 -23882
L15253 -23878
L15229 -23873
L15196 -23873
L15168 -23878
L15140 -23887
L15126 -23892
L15089 -23910
L15056 -23934
L15042 -23948
L15018 -23976
L15004 -24004
L15000 -24032
L15000 -24051
L15004 -24070
L15009 -24079
L15023 -24098
L15042 -24112
L15051 -24117
L15065 -24121
L15089 -24126
Z" fill="currentColor"/>
<path stroke-width="20.0300" d="
M15595 -24121
L15600 -24093
L15604 -24028
L15604 -24004
L15600 -23953
L15595 -23925
L15581 -23878
L15567 -23845
L15553 -23817
L15534 -23789
L15510 -23760
L15487 -23737
L15459 -23714
L15417 -23685
L15370 -23662
L15318 -23643
L15318 -23390
L15332 -23446
L15337 -23460
L15346 -23484
L15365 -23521
L15379 -23545
L15393 -23564
L15417 -23592
L15468 -23648
L15487 -23667
L15520 -23704
L15539 -23728
L15557 -23756
L15576 -23789
L15590 -23821
L15600 -23850
L15609 -23887
L15614 -23915
L15618 -23971
L15618 -24023
L15614 -24075
L15609 -24107
L15604 -24131
L15600 -24150
L15595 -24121
Z" fill="currentColor"/>
<path stroke-width="20.0300" d="
M15609 -24107
L15604 -24131
L15600 -24150
L15590 -24182
L15571 -24234
L15581 -24201
L15585 -24178
L15590 -24154
L15595 -24121
L15600 -24093
L15609 -24107
Z" fill="currentColor"/>
<path stroke-width="20.0300" d="
M15595 -23859
L15600 -23831
L15604 -23765
L15604 -23742
L15600 -23690
L15595 -23662
L15581 -23615
L15567 -23582
L15553 -23554
L15534 -23526
L15510 -23498
L15487 -23475
L15459 -23451
L15417 -23423
L15370 -23400
L15318 -23381
L15318 -23128
L15332 -23184
L15337 -23198
L15346 -23221
L15365 -23259
L15379 -23282
L15393 -23301
L15417 -23329
L15468 -23385
L15487 -23404
L15520 -23442
L15539 -23465
L15557 -23493
L15576 -23526
L15590 -23559
L15600 -23587
L15609 -23625
L15614 -23653
L15618 -23709
L15618 -23760
L15614 -23812
L15609 -23845
L15604 -23868
L15600 -23887
L15595 -23859
Z" fill="currentColor"/>
</g>
</svg>
